# xmcd
#
# Track frame offsets:
#	150
#	18523
#	36901
#	55556
#	73937
#
# Disc length: 1228 seconds
#
# Revision: 0
# Processed by: cddbd v1.5.1PL0 Copyright (c) Steve Scherf et al.
# Submitted via: dBpowerAMP V4.0
#
DISCID=3e04ca05
DTITLE=Siene-Puttkers - Hoevelhof
DYEAR=1900
DGENRE=
TTITLE0=Hoevelhof
TTITLE1=Huewelhuaef
TTITLE2=Hoevelhof
TTITLE3=Hoevelhof
TTITLE4=Hoevelhof
EXTD=Hövelhof Album
EXTT0=
EXTT1=
EXTT2=
EXTT3=
EXTT4=
PLAYORDER=
